<svg width="85" height="85" class="ah ae cx text-indigo-500" style="fill:#667eea" viewBox="0 0 80 80" xmlns="http://www.w3.org/2000/svg"> <path d="M51 35.183c.964-3.871 2.592-7.045 4.737-9.579 1.27-1.502 2.636-2.669 4.007-3.541.838-.534 1.505-.854 1.914-1.003l.94-.342.684 1.88-.94.342a4.92 4.92 0 00-.382.168c-.34.164-.725.377-1.142.642-1.207.768-2.419 1.804-3.555 3.146C53.981 30.776 52 36.358 52 44v1h-2v-1c0-7.642-1.981-13.225-5.263-17.104-1.136-1.342-2.348-2.378-3.555-3.146a11.116 11.116 0 00-1.142-.642 4.92 4.92 0 00-.382-.168l-.94-.342.684-1.88.94.342c.41.149 1.076.47 1.914 1.003 1.371.872 2.737 2.04 4.007 3.541 2.145 2.534 3.773 5.708 4.737 9.579zm1.9-30.897l4.25.618L54.073 7.9l.726 4.231-3.8-1.996-3.8 1.996.726-4.23-3.075-2.997 4.249-.618L51 .436l1.9 3.85zm-1.328 1.828L51 4.955l-.572 1.159-1.279.186.925.902-.218 1.275L51 7.875l1.144.602-.218-1.275.925-.902-1.28-.186zM50 16h2v8h-2v-8zm-7.85 18.208l-3.076 2.996.726 4.231L36 39.44l-3.8 1.996.726-4.23-3.075-2.997 4.249-.618 1.9-3.85 1.9 3.85 4.25.618zm-5.578 1.21L36 34.259l-.572 1.159-1.279.186.925.902-.218 1.275L36 37.179l1.144.602-.218-1.275.925-.902-1.28-.186zm35.577-1.21l-3.075 2.996.726 4.231L66 39.44l-3.8 1.996.726-4.23-3.075-2.997 4.249-.618 1.9-3.85 1.9 3.85 4.25.618zm-5.577 1.21L66 34.259l-.572 1.159-1.279.186.925.902-.218 1.275L66 37.179l1.144.602-.218-1.275.925-.902-1.28-.186zM32.5 22a3.5 3.5 0 110-7 3.5 3.5 0 010 7zm0-2a1.5 1.5 0 100-3 1.5 1.5 0 000 3zm37 2a3.5 3.5 0 110-7 3.5 3.5 0 010 7zm0-2a1.5 1.5 0 100-3 1.5 1.5 0 000 3z"></path> </svg>