 <svg class="ah ae cx text-pink-500" viewBox="0 0 80 80" xmlns="http://www.w3.org/2000/svg"> <path d="M39.459 10.225A3.714 3.714 0 0145.633 8.7l9.694 9.7a198.863 198.863 0 01-.767-5.021L48.214 7.03l-.003.003-3.902-3.875a1.5 1.5 0 10-2.121 2.122l-1.414 1.414a3.5 3.5 0 014.947-4.953l.607.603a3.5 3.5 0 015.78-1.32l6.73 6.729a3.985 3.985 0 011.672.609 53.297 53.297 0 00-.406-3.674A3.751 3.751 0 0164.98.275c1.294.448 2.241 1.564 2.462 2.865.394 1.77.976 3.696 1.816 6.115.267.768.545 1.544.936 2.623 1.324 3.645 1.34 3.688 1.766 4.962a14.9 14.9 0 01-.423 10.551l-1.84-.782a12.9 12.9 0 00.366-9.135c-.419-1.25-.434-1.293-1.749-4.913-.394-1.088-.674-1.87-.945-2.65-.864-2.485-1.465-4.478-1.889-6.386a1.751 1.751 0 00-2.9-1.003c-.475.429-.677 1.082-.513 1.789.406 2.75.607 5.527.6 8.307.393 1.465.9 3.07 1.551 4.944.293.843.597 1.694 1.027 2.88 1.44 3.969 1.455 4.008 1.918 5.393a16.148 16.148 0 01-3.922 16.532c-4.846 4.844-12.701 4.844-17.547 0L30.364 27.04a3.712 3.712 0 01.073-5.324c.428-.407.93-.694 1.46-.859l-1.513-1.512a3.714 3.714 0 012.102-6.303 3.713 3.713 0 016.218-3.565l.755.748zm1.15 3.954l-3.316-3.284a1.713 1.713 0 10-2.424 2.424l13.363 13.359-1.414 1.414-.707-.707L34.932 16.21l-.004.004-.707-.707a1.712 1.712 0 00-2.924 1.188c-.007.463.174.909.501 1.236l3.765 3.764.063.06.714.7-.008.008 8.058 8.056-1.414 1.414-.707-.707-8.092-8.089a1.737 1.737 0 00-2.901 1.252c-.007.463.174.908.502 1.236l15.329 15.328c4.065 4.063 10.654 4.063 14.72-.001a14.148 14.148 0 003.438-14.484c-.455-1.36-.47-1.4-1.9-5.344a212.54 212.54 0 01-1.037-2.906c-.93-2.677-1.578-4.829-2.031-6.87a1.986 1.986 0 00-3.282-1.115c-.534.48-.767 1.212-.592 2.009.047.37.224 1.64.406 2.856.291 1.94.588 3.736.873 5.208a1.276 1.276 0 01-2.156 1.14L44.218 10.113a1.714 1.714 0 00-2.423 2.424l.224.224.71.702-.004.004 9.36 9.359-1.415 1.414-.707-.707-9.354-9.354zm13.928-3.653a3.983 3.983 0 011.917-2.327l-5.761-5.76a1.5 1.5 0 10-2.12 2.122l5.964 5.965z"></path> </svg> 